#!OML:ASF H:\ManfredObstacles\Project 1\Capture day 1\Session 1\Male.ASF
:FULLY-SPECIFIED
:DEGREES
563
root 6.48743 16.7682 -21.7893 -165.366 -10.4229 -180.186
lowerback -11.4549 -2.16568 1.41611
upperback -0.313553 -3.14023 0.0768557
thorax 6.02361 -1.53098 -1.23415
lowerneck 2.21383 -3.07439 -5.19486
upperneck -14.2646 -3.94745 11.7277
head -4.233 -2.705 4.68156
rclavicle 2.21396e-014 -8.34896e-015
rhumerus -37.5668 -26.2307 -76.2501
rradius 27.2885
rwrist 32.8252
rhand -0.627769 -3.46317
rfingers 7.12502
rthumb 24.9889 -31.8489
lclavicle 2.21396e-014 -8.34896e-015
lhumerus -23.5655 2.54467 90.9783
lradius 22.9166
lwrist -23.7427
lhand -10.3866 7.45352
lfingers 7.12502
lthumb 15.6114 36.8436
rfemur -29.0693 -4.86508 23.3059
rtibia 25.0276
rfoot -16.4048 13.8278
rtoes 19.1119
lfemur 7.89735 -3.53692 -13.0612
ltibia 6.36111e-015
lfoot 22.0918 -13.2699
ltoes 16.5397
564
root 6.48957 16.769 -21.8005 -165.282 -10.2881 -180.272
lowerback -11.4899 -2.17768 1.34807
upperback -0.327813 -3.14927 0.0859843
thorax 6.03208 -1.53786 -1.1892
lowerneck 2.44434 -3.00887 -5.37467
upperneck -14.4814 -3.85271 11.8992
head -4.33724 -2.674 4.77665
rclavicle -4.52732e-014 8.89561e-015
rhumerus -37.4562 -26.1461 -76.2957
rradius 27.2598
rwrist 32.8443
rhand -0.628656 -3.5573
rfingers 7.12502
rthumb 24.9881 -31.9432
lclavicle -4.52732e-014 8.89561e-015
lhumerus -23.4519 2.6156 91.1007
lradius 22.791
lwrist -23.9696
lhand -10.3553 7.42538
lfingers 7.12502
lthumb 15.6414 36.8131
rfemur -29.0853 -4.65866 23.1586
rtibia 24.998
rfoot -16.347 13.8072
rtoes 19.3765
lfemur 7.88521 -3.42382 -13.1792
ltibia -4.13472e-014
lfoot 22.0327 -13.4074
ltoes 16.2634
565
root 6.49199 16.7657 -21.8101 -165.23 -10.1569 -180.329
lowerback -11.5259 -2.17117 1.30714
upperback -0.313555 -3.13547 0.083637
thorax 6.06976 -1.53147 -1.16856
lowerneck 2.47298 -2.984 -5.42183
upperneck -14.4558 -3.81927 11.8993
head -4.33631 -2.65336 4.78344
rclavicle -6.33626e-016 3.8763e-015
rhumerus -37.4662 -26.2468 -76.2937
rradius 27.424
rwrist 32.9046
rhand -0.559832 -3.62434
rfingers 7.12502
rthumb 25.054 -32.001
lclavicle -6.33626e-016 3.8763e-015
lhumerus -23.2797 2.56821 91.1938
lradius 22.5372
lwrist -24.2003
lhand -10.4595 7.35601
lfingers 7.12502
lthumb 15.5411 36.7515
rfemur -29.0995 -4.48721 23.0656
rtibia 25.0025
rfoot -16.2406 13.7328
rtoes 19.8622
lfemur 7.92186 -3.31149 -13.2646
ltibia 1.59028e-014
lfoot 22.0262 -13.5111
ltoes 15.8935
566
root 6.49304 16.7649 -21.8164 -165.216 -10.0844 -180.282
lowerback -11.5308 -2.13269 1.42472
upperback -0.294896 -3.09878 0.0741144
thorax 6.08646 -1.50928 -1.2392
lowerneck 2.52256 -2.99831 -5.44721
upperneck -14.5003 -3.83561 11.9543
head -4.35464 -2.66675 4.8084
rclavicle 2.29224e-015 2.88238e-015
rhumerus -37.4792 -26.4121 -76.2775
rradius 27.4922
rwrist 33.0385
rhand -0.572431 -3.61332
rfingers 7.12502
rthumb 25.042 -31.9917
lclavicle 2.29224e-015 2.88238e-015
lhumerus -23.1226 2.43096 91.2567
lradius 22.2085
lwrist -24.3939
lhand -10.6329 7.30289
lfingers 7.12502
lthumb 15.3741 36.7113
rfemur -29.1284 -4.45644 23.1306
rtibia 25.0137
rfoot -16.1997 13.7533
rtoes 20.9515
lfemur 7.93669 -3.22889 -13.221
ltibia -1.90833e-014
lfoot 22.1712 -13.2299
ltoes 16.5751
567
root 6.49427 16.7683 -21.8217 -165.134 -10.0001 -180.338
lowerback -11.5677 -2.10966 1.43659
upperback -0.323332 -3.06821 0.0165473
thorax 6.07409 -1.49419 -1.30213
lowerneck 2.42256 -3.06173 -5.2696
upperneck -14.2709 -3.92426 11.7729
head -4.26949 -2.69359 4.71313
rclavicle 1.43373e-014 2.28602e-015
rhumerus -37.4949 -26.4638 -76.3057
rradius 27.4684
rwrist 33.0673
rhand -0.673175 -3.58469
rfingers 7.12502
rthumb 24.9454 -31.9765
lclavicle 1.43373e-014 2.28602e-015
lhumerus -23.1059 2.37704 91.2304
lradius 21.9826
lwrist -24.6053
lhand -10.5391 7.34157
lfingers 7.12502
lthumb 15.4645 36.743
rfemur -29.1836 -4.31766 23.0417
rtibia 24.9855
rfoot -16.1521 13.6674
rtoes 21.603
lfemur 7.86342 -3.15256 -13.2793
ltibia 1.59028e-014
lfoot 22.2162 -13.3386
ltoes 16.2285
568
root 6.49638 16.7758 -21.8276 -165.076 -9.89314 -180.431
lowerback -11.5707 -2.1106 1.33124
upperback -0.343546 -3.05459 -0.0127195
thorax 6.0586 -1.4909 -1.27111
lowerneck 2.41421 -3.07792 -5.30322
upperneck -14.2073 -3.94309 11.8323
head -4.24466 -2.70188 4.73556
rclavicle 5.62685e-014 4.47266e-016
rhumerus -37.4934 -26.4843 -76.3012
rradius 27.4631
rwrist 32.9715
rhand -0.805183 -3.46
rfingers 7.12502
rthumb 24.8189 -31.8693
lclavicle 5.62685e-014 4.47266e-016
lhumerus -23.0667 2.56708 91.1595
lradius 21.6724
lwrist -25.0527
lhand -10.4603 7.29993
lfingers 7.12502
lthumb 15.5404 36.6955
rfemur -29.1406 -4.16856 22.9147
rtibia 24.917
rfoot -15.9756 13.4959
rtoes 21.5973
lfemur 7.81192 -3.06644 -13.3708
ltibia -4.77083e-014
lfoot 22.1585 -13.6447
ltoes 15.0367
569
root 6.49708 16.7785 -21.8315 -165.095 -9.81257 -180.347
lowerback -11.5258 -2.11162 1.38195
upperback -0.332917 -3.06447 0.0407044
thorax 6.04474 -1.49484 -1.2434
lowerneck 2.35978 -3.1165 -5.30614
upperneck -14.1502 -4.00097 11.7634
head -4.21488 -2.72149 4.7125
rclavicle -1.63128e-014 -8.00108e-015
rhumerus -37.4232 -26.4932 -76.2716
rradius 27.4274
rwrist 32.8482
rhand -0.882146 -3.41336
rfingers 7.12502
rthumb 24.7452 -31.8328
lclavicle -1.63128e-014 -8.00108e-015
lhumerus -22.9377 2.93133 91.0885
lradius 21.2237
lwrist -25.5852
lhand -10.4958 7.29393
lfingers 7.12502
lthumb 15.5061 36.6922
rfemur -29.0574 -4.06738 22.9854
rtibia 24.8482
rfoot -15.7812 13.4241
rtoes 21.9247
lfemur 7.84353 -2.96892 -13.2854
ltibia 6.36111e-015
lfoot 22.464 -13.4767
ltoes 15.2682
570
root 6.49627 16.7767 -21.8334 -165.106 -9.73341 -180.23
lowerback -11.5022 -2.12827 1.47343
upperback -0.319953 -3.10139 0.099601
thorax 6.04273 -1.51085 -1.23824
lowerneck 2.1596 -3.12237 -5.32502
upperneck -13.9092 -4.01241 11.7459
head -4.10705 -2.71102 4.69703
rclavicle -2.53575e-014 6.4605e-015
rhumerus -37.3265 -26.3901 -76.3145
rradius 27.3978
rwrist 32.7537
rhand -0.80681 -3.52169
rfingers 7.12502
rthumb 24.8174 -31.9312
lclavicle -2.53575e-014 6.4605e-015
lhumerus -22.8825 3.36291 90.9594
lradius 20.91
lwrist -26.086
lhand -10.4003 7.42166
lfingers 7.12502
lthumb 15.5981 36.8127
rfemur -29.0176 -3.94395 23.0781
rtibia 24.789
rfoot -15.6467 13.4243
rtoes 22.2659
lfemur 7.87477 -2.86413 -13.1794
ltibia -2.54444e-014
lfoot 22.7415 -13.0596
ltoes 16.8666
571
root 6.49464 16.7768 -21.836 -165.162 -9.6326 -180.201
lowerback -11.429 -2.15602 1.45991
upperback -0.280865 -3.13585 0.141934
thorax 6.04516 -1.5275 -1.18954
lowerneck 1.92674 -3.16776 -5.2598
upperneck -13.6613 -4.08232 11.6149
head -3.99198 -2.72538 4.63246
rclavicle 1.48032e-014 8.24956e-015
rhumerus -37.2036 -26.2365 -76.3641
rradius 27.3729
rwrist 32.7019
rhand -0.694031 -3.5758
rfingers 7.12502
rthumb 24.9254 -31.9704
lclavicle 1.48032e-014 8.24956e-015
lhumerus -22.8665 3.71623 90.8337
lradius 20.6511
lwrist -26.5216
lhand -10.3854 7.48456
lfingers 7.12502
lthumb 15.6125 36.8745
rfemur -28.9201 -3.87431 23.0887
rtibia 24.7498
rfoot -15.5484 13.4729
rtoes 22.6411
lfemur 7.95617 -2.76705 -13.169
ltibia -1.27222e-014
lfoot 22.8961 -13.5832
ltoes 15.4232
572
root 6.49379 16.7779 -21.8407 -165.188 -9.53399 -180.188
lowerback -11.4069 -2.20941 1.39999
upperback -0.276301 -3.20094 0.183724
thorax 6.04149 -1.56168 -1.12182
lowerneck 2.22522 -3.04529 -5.46181
upperneck -13.8949 -3.90611 11.8622
head -4.11686 -2.66011 4.75503
rclavicle 1.61264e-014 5.56597e-015
rhumerus -37.1176 -26.0593 -76.3982
rradius 27.238
rwrist 32.702
rhand -0.736709 -3.54603
rfingers 7.12502
rthumb 24.8845 -31.9463
lclavicle 1.61264e-014 5.56597e-015
lhumerus -22.8602 4.05849 90.6528
lradius 20.237
lwrist -26.8498
lhand -10.4172 7.45199
lfingers 7.12502
lthumb 15.5818 36.8443
rfemur -28.8563 -3.82529 23.0943
rtibia 24.7201
rfoot -15.5038 13.4854
rtoes 23.1936
lfemur 8.00167 -2.67208 -13.1603
ltibia -9.54166e-015
lfoot 23.0188 -13.7342
ltoes 14.5676
573
root 6.49431 16.7794 -21.8465 -165.129 -9.44814 -180.198
lowerback -11.4986 -2.25185 1.33148
upperback -0.300085 -3.25223 0.192221
thorax 6.07077 -1.58946 -1.0866
lowerneck 1.97689 -3.03446 -5.46908
upperneck -13.5549 -3.89076 11.9109
head -3.97203 -2.63669 4.75352
rclavicle 2.69105e-014 2.5842e-015
rhumerus -37.1082 -26.0439 -76.361
rradius 27.0584
rwrist 32.8975
rhand -0.794831 -3.45966
rfingers 7.12502
rthumb 24.8288 -31.8676
lclavicle 2.69105e-014 2.5842e-015
lhumerus -22.8689 4.48065 90.3815
lradius 19.7848
lwrist -27.3451
lhand -10.321 7.43883
lfingers 7.12502
lthumb 15.6745 36.8239
rfemur -28.8751 -3.6882 23.0528
rtibia 24.6856
rfoot -15.5331 13.4233
rtoes 23.6389
lfemur 7.94635 -2.58409 -13.1587
ltibia 3.81667e-014
lfoot 23.1511 -13.6801
ltoes 14.6692
574
root 6.49472 16.78 -21.8511 -165.136 -9.36849 -180.166
lowerback -11.5349 -2.24208 1.33921
upperback -0.296536 -3.24091 0.187969
thorax 6.09453 -1.58335 -1.09539
lowerneck 1.8931 -3.1408 -5.34334
upperneck -13.396 -4.03822 11.7852
head -3.90338 -2.69804 4.68911
rclavicle 1.15171e-014 -6.4605e-016
rhumerus -37.1919 -26.2536 -76.2173
rradius 26.9968
rwrist 33.2051
rhand -0.71464 -3.41052
rfingers 7.12502
rthumb 24.9057 -31.8078
lclavicle 1.15171e-014 -6.4605e-016
lhumerus -22.9061 5.03029 90.0853
lradius 19.3912
lwrist -28.1174
lhand -10.278 7.44175
lfingers 7.12502
lthumb 15.7159 36.8236
rfemur -28.8576 -3.4257 23.0011
rtibia 24.6912
rfoot -15.5837 13.332
rtoes 24.4171
lfemur 7.95122 -2.49853 -13.1184
ltibia -3.49861e-014
lfoot 23.3665 -13.763
ltoes 14.8687
575
root 6.49338 16.7793 -21.857 -165.179 -9.30978 -180.128
lowerback -11.5831 -2.24142 1.34921
upperback -0.261496 -3.24236 0.202636
thorax 6.15891 -1.5824 -1.08915
lowerneck 1.73337 -3.23479 -5.22673
upperneck -13.1805 -4.17236 11.6153
head -3.80759 -2.7458 4.6084
rclavicle 2.12141e-014 5.36719e-015
rhumerus -37.3098 -26.4519 -76.0708
rradius 27.0469
rwrist 33.3983
rhand -0.652658 -3.43078
rfingers 7.12502
rthumb 24.9651 -31.8199
lclavicle 2.12141e-014 5.36719e-015
lhumerus -22.9501 5.80482 89.7666
lradius 18.9737
lwrist -28.9751
lhand -10.3317 7.39581
lfingers 7.12502
lthumb 15.6642 36.7817
rfemur -28.797 -3.24284 22.959
rtibia 24.6979
rfoot -15.5647 13.3286
rtoes 25.337
lfemur 8.01629 -2.43834 -13.0851
ltibia -3.18055e-015
lfoot 23.6205 -14.0116
ltoes 14.4145
576
root 6.48898 16.7779 -21.869 -165.143 -9.25963 -180.32
lowerback -11.7722 -2.28781 1.14626
upperback -0.219016 -3.27707 0.161693
thorax 6.31809 -1.60212 -1.03443
lowerneck 1.69847 -3.26625 -5.26394
upperneck -13.1742 -4.21478 11.6774
head -3.79329 -2.76892 4.63385
rclavicle -1.93007e-014 -9.93923e-017
rhumerus -37.3922 -26.5391 -75.9727
rradius 27.0158
rwrist 33.505
rhand -0.807793 -3.45409
rfingers 7.12502
rthumb 24.8164 -31.8637
lclavicle -1.93007e-014 -9.93923e-017
lhumerus -23.0053 6.63143 89.4234
lradius 18.5783
lwrist -29.7412
lhand -10.3829 7.33251
lfingers 7.12502
lthumb 15.6149 36.7223
rfemur -28.7539 -3.35622 22.7332
rtibia 24.6568
rfoot -15.5672 13.5502
rtoes 26.597
lfemur 8.06636 -2.44253 -13.3196
ltibia 0
lfoot 23.7416 -14.1922
ltoes 13.7768
577
root 6.48789 16.7792 -21.8704 -165.144 -9.21054 -180.368
lowerback -11.7565 -2.29979 1.0793
upperback -0.236378 -3.28326 0.146947
thorax 6.29356 -1.60765 -1.01217
lowerneck 1.76369 -3.27869 -5.37472
upperneck -13.2112 -4.22499 11.8547
head -3.80644 -2.78286 4.71089
rclavicle 2.22763e-014 -1.14301e-015
rhumerus -37.4728 -26.6347 -75.8503
rradius 26.862
rwrist 33.6341
rhand -0.973401 -3.51326
rfingers 7.12502
rthumb 24.6577 -31.9447
lclavicle 2.22763e-014 -1.14301e-015
lhumerus -23.0784 7.46446 89.0394
lradius 18.1427
lwrist -30.5239
lhand -10.4022 7.32661
lfingers 7.12502
lthumb 15.5963 36.7178
rfemur -28.7131 -3.20732 22.6264
rtibia 24.6029
rfoot -15.5266 13.4705
rtoes 27.2383
lfemur 8.06414 -2.40736 -13.3801
ltibia -1.27222e-014
lfoot 23.7917 -14.2554
ltoes 13.5516
